<?xml version="1.0" standalone="no"?>
<!DOCTYPE svg PUBLIC "-//W3C//DTD SVG 20010904//EN"
 "http://www.w3.org/TR/2001/REC-SVG-20010904/DTD/svg10.dtd">
<svg version="1.0" xmlns="http://www.w3.org/2000/svg"
 width="512.000000pt" height="512.000000pt" viewBox="0 0 512.000000 512.000000"
 preserveAspectRatio="xMidYMid meet">

<g transform="translate(0.000000,512.000000) scale(0.100000,-0.100000)"
fill="#000000" stroke="none">
<path d="M0 2560 l0 -2560 2560 0 2560 0 0 2560 0 2560 -2560 0 -2560 0 0
-2560z m2483 1505 c44 -8 125 -18 180 -21 67 -4 129 -15 182 -32 68 -22 99
-26 205 -27 120 0 126 -1 160 -27 34 -26 173 -244 206 -323 8 -19 23 -94 34
-167 10 -73 28 -169 39 -213 39 -154 61 -637 42 -918 -11 -163 -30 -262 -43
-226 -3 8 -9 2 -13 -16 -4 -16 -16 -57 -27 -90 -11 -33 -22 -85 -24 -115 -4
-54 -4 -54 9 -22 7 18 16 30 19 26 4 -3 10 6 14 20 3 15 8 25 10 23 10 -9 -37
-200 -65 -269 -60 -143 -165 -295 -254 -368 -30 -24 -22 -13 29 41 78 84 124
146 144 199 7 19 17 39 22 44 4 6 8 18 8 27 0 10 9 38 19 62 l19 45 -24 5
c-17 3 -28 -1 -34 -14 -13 -23 -13 -29 1 -29 5 0 8 4 4 9 -3 5 -1 12 5 16 6 4
10 -6 10 -24 0 -17 -5 -31 -11 -31 -5 0 -8 -4 -5 -8 2 -4 -4 -13 -14 -20 -23
-14 -37 2 -20 23 10 12 9 15 -3 15 -8 0 -26 -15 -41 -34 -14 -19 -33 -42 -42
-51 -15 -14 -15 -18 -3 -26 9 -6 1 -7 -24 -3 -28 4 -43 0 -63 -15 -15 -12 -23
-21 -19 -21 4 0 -4 -15 -18 -34 -14 -18 -29 -46 -33 -62 -4 -16 -16 -40 -26
-53 -26 -34 -89 -71 -110 -65 -10 3 -21 -3 -28 -15 -9 -18 -17 -20 -73 -14
-54 5 -71 2 -120 -21 -32 -14 -62 -26 -68 -26 -6 0 -7 -4 -4 -10 4 -6 19 -4
42 5 20 8 38 13 41 11 21 -21 -99 -59 -181 -57 -32 0 -74 -6 -94 -14 -58 -24
-108 -19 -180 20 -44 24 -78 35 -106 35 -59 1 -126 18 -153 39 -13 10 -21 20
-19 23 2 2 -17 3 -43 2 -29 -2 -57 4 -72 13 -46 29 -135 111 -163 149 -81 113
-120 181 -119 209 0 17 -7 52 -15 78 -8 27 -13 51 -9 54 3 3 -1 18 -9 34 -8
15 -15 37 -15 49 0 11 -11 38 -24 59 -14 21 -22 42 -18 46 4 5 0 6 -8 3 -12
-4 -15 4 -16 36 -2 37 -14 94 -73 320 -11 44 -25 151 -32 239 -14 179 -7 277
39 597 27 182 30 268 21 505 -4 126 19 176 129 273 136 119 216 147 357 122
128 -22 176 -22 270 -1 110 24 195 26 298 6z m-1209 -1344 c9 -39 16 -94 17
-123 0 -48 5 -85 24 -188 l6 -35 -16 29 c-8 16 -22 52 -29 80 -22 79 -50 271
-43 289 12 33 26 16 41 -52z m93 -533 c-3 -8 -6 -5 -6 6 -1 11 2 17 5 13 3 -3
4 -12 1 -19z m23 -53 c0 -8 -4 -15 -10 -15 -5 0 -10 7 -10 15 0 8 5 15 10 15
6 0 10 -7 10 -15z m297 -822 c-3 -10 -9 -36 -12 -58 l-8 -40 -8 30 c-6 19 -5
40 2 58 12 30 33 38 26 10z m-53 -205 c8 -18 26 -46 41 -61 32 -36 226 -175
319 -229 39 -23 96 -63 126 -88 135 -115 239 -171 352 -191 126 -22 261 15
376 103 51 40 150 154 197 228 12 19 42 46 65 60 66 39 106 76 155 146 25 35
48 64 50 64 9 0 -9 -36 -30 -60 -12 -14 -32 -41 -45 -60 -13 -19 -28 -38 -33
-41 -5 -3 -2 -9 6 -12 12 -4 15 -22 15 -75 0 -38 3 -75 7 -82 5 -8 4 -11 -3
-6 -6 4 -16 -4 -23 -16 -11 -20 -11 -22 3 -10 25 20 29 -1 7 -39 l-20 -34 37
40 c30 33 34 35 19 10 -158 -263 -445 -435 -781 -467 -232 -22 -411 28 -586
165 -128 99 -204 220 -272 438 -34 107 -48 224 -29 242 15 15 34 5 47 -25z
m1763 0 c-3 -7 -5 -2 -5 12 0 14 2 19 5 13 2 -7 2 -19 0 -25z m-10 -50 c-3 -8
-6 -5 -6 6 -1 11 2 17 5 13 3 -3 4 -12 1 -19z"/>
<path d="M3108 3270 c-147 -26 -384 -86 -400 -102 -20 -20 -24 -78 -8 -109 15
-27 84 -25 256 7 125 24 148 25 224 16 51 -6 107 -21 140 -36 88 -41 109 -32
95 41 -8 42 -97 143 -148 166 -44 20 -103 27 -159 17z"/>
<path d="M1708 3210 c-78 -23 -170 -122 -184 -197 -12 -62 -2 -67 68 -29 35
19 88 39 120 46 74 15 240 15 303 0 28 -7 99 -12 159 -13 96 -1 105 -2 76 -12
-18 -6 -40 -22 -49 -35 -10 -15 -11 -21 -3 -16 8 5 12 0 12 -17 0 -30 86 -119
109 -115 19 4 32 70 21 107 -4 15 -6 58 -4 96 4 112 10 105 -125 135 -212 47
-438 70 -503 50z"/>
<path d="M2384 3108 c-4 -7 -3 -8 4 -4 8 4 12 0 12 -11 0 -15 2 -15 9 -3 10
15 6 30 -9 30 -5 0 -12 -5 -16 -12z"/>
<path d="M2565 3090 c-3 -5 -1 -10 4 -10 6 0 11 5 11 10 0 6 -2 10 -4 10 -3 0
-8 -4 -11 -10z"/>
<path d="M2651 3005 c-31 -46 -41 -153 -17 -190 19 -29 60 -33 95 -9 17 12 26
13 34 5 6 -6 36 -11 67 -10 l55 1 -45 9 c-25 5 -50 7 -55 5 -6 -2 -16 3 -23
10 -10 11 -5 19 30 44 73 53 105 53 122 0 13 -41 45 -60 101 -60 55 0 83 22
91 71 8 48 30 51 75 11 l31 -28 -44 -20 c-23 -11 -54 -26 -68 -32 -20 -10 -6
-11 80 -8 115 4 153 16 189 62 12 15 21 39 21 55 0 15 5 31 10 34 6 3 10 11
10 16 0 6 -4 7 -10 4 -5 -3 -10 -1 -10 4 0 6 -10 9 -22 7 -13 -2 -35 0 -50 5
-18 5 -33 2 -47 -8 -19 -13 -25 -12 -54 5 -23 15 -59 22 -134 27 -123 9 -184
-3 -255 -52 -28 -19 -48 -31 -45 -26 3 5 8 21 11 35 4 24 0 27 -42 38 -26 7
-51 13 -57 14 -5 1 -12 4 -15 8 -3 4 -16 -9 -29 -27z m474 -31 c17 -8 21 -11
10 -8 -49 15 -161 16 -205 0 -53 -18 -63 -15 -18 7 43 21 171 22 213 1z m122
-120 c-3 -3 -12 -4 -19 -1 -8 3 -5 6 6 6 11 1 17 -2 13 -5z"/>
<path d="M3253 2995 c0 -8 4 -12 9 -9 4 3 8 9 8 15 0 5 -4 9 -8 9 -5 0 -9 -7
-9 -15z"/>
<path d="M1812 2965 c-71 -16 -146 -55 -162 -86 -6 -11 -15 -17 -21 -14 -15
10 -10 -42 6 -59 8 -8 41 -19 73 -25 31 -6 77 -15 102 -20 25 -5 46 -8 48 -6
2 1 -26 18 -62 36 -36 19 -66 36 -66 39 0 10 83 70 97 70 24 0 28 -5 29 -35 3
-46 53 -85 110 -85 37 0 51 5 75 29 17 18 29 40 29 56 0 14 6 28 14 31 25 9
126 -53 126 -78 0 -4 -15 -8 -32 -9 -18 0 -55 -7 -83 -15 l-50 -13 80 4 c117
7 136 39 76 124 -20 28 -105 61 -152 61 -24 -1 -24 -1 -4 -16 l20 -16 -20 5
c-72 19 -154 16 -230 -8 -11 -3 -8 1 8 10 15 9 53 20 85 24 56 8 56 9 12 9
-25 0 -74 -6 -108 -13z m-47 -53 c-35 -29 -85 -62 -85 -55 0 5 19 21 42 36 40
26 63 36 43 19z"/>
<path d="M2800 2528 c0 -10 8 -25 19 -35 44 -42 74 -142 49 -166 -8 -9 -21
-11 -33 -6 -55 21 -197 -6 -248 -48 -16 -13 -32 -23 -35 -23 -4 0 -24 -4 -44
-9 -30 -7 -47 -4 -89 15 -63 30 -110 30 -167 3 -50 -25 -84 -17 -103 25 -12
25 -4 96 9 96 4 0 8 9 8 21 l0 21 -18 -21 c-9 -12 -20 -41 -23 -65 -10 -62 12
-98 77 -130 58 -29 86 -33 94 -13 3 9 25 14 64 16 49 2 60 -1 73 -19 13 -19
13 -25 1 -48 -19 -37 -18 -88 2 -96 9 -3 42 -6 75 -6 l58 0 -5 43 c-4 23 -8
44 -10 46 -8 9 30 41 48 41 28 0 68 -30 68 -50 0 -32 26 -43 84 -36 30 3 61 8
68 11 10 4 21 -8 33 -37 l19 -43 3 32 c3 24 -2 39 -21 60 -14 15 -26 30 -26
34 0 3 -7 6 -15 6 -11 0 -12 -4 -5 -11 15 -15 12 -36 -5 -36 -14 0 -19 12 -16
33 0 4 -3 7 -9 7 -11 0 -13 30 -4 54 3 9 14 16 24 16 24 0 77 45 95 81 8 15
15 42 15 59 0 35 -30 99 -56 121 -9 8 -25 28 -36 44 -12 20 -18 24 -18 13z
m-93 -234 c-3 -3 -12 -4 -19 -1 -8 3 -5 6 6 6 11 1 17 -2 13 -5z m-354 -71
c-7 -2 -21 -2 -30 0 -10 3 -4 5 12 5 17 0 24 -2 18 -5z m406 -29 c2 -2 -15 -4
-38 -4 -25 0 -40 4 -36 10 5 8 63 3 74 -6z"/>
<path d="M2223 2290 c-13 -5 -23 -11 -23 -14 0 -5 21 -1 65 13 28 9 28 9 5 10
-14 0 -35 -4 -47 -9z"/>
<path d="M2880 2240 c-8 -5 -12 -12 -9 -15 4 -3 12 1 19 10 14 17 11 19 -10 5z"/>
<path d="M2615 2005 c-25 -9 -79 -15 -141 -15 -99 0 -102 -1 -195 -46 -52 -25
-125 -57 -164 -71 -75 -27 -95 -43 -95 -80 0 -27 12 -28 69 -8 48 17 62 13
116 -30 22 -18 65 -47 95 -65 30 -18 60 -40 67 -48 7 -9 42 -18 90 -23 96 -10
232 -10 188 0 -24 6 -14 9 48 15 118 12 226 68 203 105 -3 5 19 31 49 59 91
82 76 104 -130 174 -77 26 -144 48 -150 48 -5 -1 -28 -7 -50 -15z m65 -155
c-14 -4 -59 -8 -100 -8 -62 1 -68 2 -35 8 58 10 167 10 135 0z m29 -36 c12
-11 -11 -13 -58 -4 -29 5 -65 7 -80 4 -20 -4 -23 -3 -11 5 14 11 138 6 149 -5z"/>
<path d="M3380 1777 c0 -8 7 -20 15 -27 12 -10 15 -10 15 3 0 8 -7 20 -15 27
-12 10 -15 10 -15 -3z"/>
</g>
</svg>
